HIERARCHY
ROOT hip
{
	OFFSET 0.000000 0.000000 0.000000 
	CHANNELS 6 Xposition Yposition Zposition Xrotation Zrotation Yrotation
	JOINT abdomen
	{
		OFFSET 0.000000 3.402643 0.000000 
		CHANNELS 3 Xrotation Zrotation Yrotation
		JOINT chest
		{
			OFFSET 0.000000 8.438565 -0.680529 
			CHANNELS 3 Xrotation Zrotation Yrotation
			JOINT neck
			{
				OFFSET 0.000000 10.207942 -0.272212 
				CHANNELS 3 Xrotation Zrotation Yrotation
				JOINT head
				{
					OFFSET 0.000000 3.130431 0.000000 
					CHANNELS 3 Xrotation Zrotation Yrotation
					End Site
					{
						OFFSET 0.000000 3.130435 0.000000 
					}
				}
			}
			JOINT lCollar
			{
				OFFSET 3.470700 6.669187 -0.816635 
				CHANNELS 3 Yrotation Zrotation Xrotation
				JOINT lShldr
				{
					OFFSET 3.198488 0.000000 0.000000 
					CHANNELS 3 Zrotation Yrotation Xrotation
					JOINT lForeArm
					{
						OFFSET 10.139888 0.000000 0.000000 
						CHANNELS 3 Yrotation Zrotation Xrotation
						JOINT lHand
						{
							OFFSET 8.370511 0.000000 0.000000 
							CHANNELS 3 Zrotation Yrotation Xrotation
							End Site
							{
								OFFSET 4.083176 0.000000 0.000000 
							}
						}
					}
				}
			}
			JOINT rCollar
			{
				OFFSET -3.470700 6.669187 -0.816635 
				CHANNELS 3 Yrotation Zrotation Xrotation
				JOINT rShldr
				{
					OFFSET -3.198488 0.000000 0.000000 
					CHANNELS 3 Zrotation Yrotation Xrotation
					JOINT rForeArm
					{
						OFFSET -10.139888 0.000000 0.000000 
						CHANNELS 3 Yrotation Zrotation Xrotation
						JOINT rHand
						{
							OFFSET -8.370511 0.000000 0.000000 
							CHANNELS 3 Zrotation Yrotation Xrotation
							End Site
							{
								OFFSET -4.083176 0.000000 0.000000 
							}
						}
					}
				}
			}
		}
	}
	JOINT lThigh
	{
		OFFSET 5.308129 -1.633274 1.361059 
		CHANNELS 3 Xrotation Zrotation Yrotation
		JOINT lShin
		{
			OFFSET -2.041588 -20.007561 0.000000 
			CHANNELS 3 Xrotation Zrotation Yrotation
			JOINT lFoot
			{
				OFFSET 0.000000 -19.190928 -1.224953 
				CHANNELS 3 Xrotation Yrotation Zrotation
				End Site
				{
					OFFSET 0.000000 -2.449906 4.627600 
				}
			}
		}
	}
	JOINT rThigh
	{
		OFFSET -5.308129 -1.633274 1.361059 
		CHANNELS 3 Xrotation Zrotation Yrotation
		JOINT rShin
		{
			OFFSET 2.041588 -20.007561 0.000000 
			CHANNELS 3 Xrotation Zrotation Yrotation
			JOINT rFoot
			{
				OFFSET 0.000000 -19.190928 -1.224953 
				CHANNELS 3 Xrotation Yrotation Zrotation
				End Site
				{
					OFFSET 0.000000 -2.449906 4.627600 
				}
			}
		}
	}
}
MOTION
Frames: 8
Frame Time: 0.033333
-89.158447 11.805228 95.710014 75.546875 34.335941 167.949219 27.453716 -2.610431 -1.272016 -42.167965 4.960938 -1.864390 51.553619 8.070152 2.616707 -54.697269 -5.048828 1.279297 2.000000 -2.000000 0.000000 -65.273430 40.722656 37.945824 -44.626072 -2.043040 -1.872095 -9.341236 45.777943 11.376693 -2.000000 2.000000 0.000000 83.994141 -14.091798 18.913639 2.599717 1.881779 0.202736 -42.637680 -64.131897 53.695805 -3.760057 9.705231 23.429468 -1.069682 -5.786889 -0.103711 34.656898 -13.505721 9.035244 -5.108400 -15.710482 -37.006821 1.763261 5.709416 -0.250363 43.363594 5.534050 -49.136452 
-89.114937 11.688934 95.673477 75.546875 34.335941 167.949219 27.453716 -2.610431 -1.272016 -41.474609 5.654297 -1.590835 51.553619 8.070152 2.616707 -54.902348 -5.205078 1.845703 2.000000 -2.000000 0.000000 -65.722656 40.595703 37.418461 -44.629734 -1.933450 -2.005957 -9.639594 45.566475 11.151843 -2.000000 2.000000 0.000000 83.955078 -13.330079 19.841499 2.599717 1.881779 0.202736 -41.505207 -64.475777 53.597126 -4.599210 10.022109 23.202042 0.473339 -5.747383 -0.318754 33.448338 -14.181934 8.657845 -4.240679 -15.062790 -38.900826 -0.353647 5.325639 0.186271 46.705925 5.807362 -49.248909 
-89.131844 11.567430 95.629028 75.546875 34.335941 167.949219 27.280272 -2.748711 -1.376043 -40.957031 6.005859 -1.445312 51.553619 8.070152 2.616707 -55.292969 -5.693359 1.718750 2.000000 -2.000000 0.000000 -65.859375 39.345699 37.460938 -44.274796 -2.033860 -1.882411 -10.798416 46.147099 10.089266 -2.000000 2.000000 0.000000 83.818359 -12.968751 20.466558 2.599717 1.881779 0.202736 -40.889324 -64.675407 53.597542 -4.950736 10.298548 22.101385 1.342949 -5.747615 -0.424535 31.704836 -13.716658 7.354070 -5.284100 -15.496294 -37.335941 1.763267 5.709474 -0.240611 44.397476 5.946362 -48.640308 
-89.196396 11.555281 95.578911 75.546875 34.335941 167.949219 27.086544 -2.821846 -1.236605 -40.771484 6.523438 -1.357422 51.553619 8.070152 2.616707 -55.859375 -6.181640 1.629808 2.000000 -2.000000 0.000000 -65.947266 37.841801 37.158207 -43.900154 -2.212256 -1.754631 -12.523876 47.528553 8.673806 -2.000000 2.000000 0.000000 83.242188 -12.792969 19.951174 2.599717 1.881779 0.202736 -40.242439 -65.050652 53.270367 -5.400024 10.278866 21.360447 1.888419 -5.786705 -0.453127 31.001980 -13.802648 6.348364 -5.986989 -16.121822 -36.701576 3.004141 5.693544 0.375226 42.698021 6.397838 -47.834686 
-89.296143 11.560836 95.525810 75.546875 34.335941 167.949219 27.086544 -2.821846 -1.236605 -40.429691 6.708985 -1.162109 51.553619 8.070152 2.616707 -56.425785 -6.474608 1.367187 2.000000 -2.000000 0.000000 -66.337891 36.503910 37.089848 -43.562572 -2.094063 -1.908225 -14.486824 48.331226 7.313534 -2.000000 2.000000 0.000000 82.597656 -12.363281 18.359373 2.384501 2.174811 0.210296 -40.724205 -64.619408 53.061100 -5.595066 9.976182 20.826965 2.055074 -5.750157 -0.477554 30.014153 -13.857750 5.655495 -6.554001 -16.742779 -35.036236 4.058991 5.685279 0.330992 40.925571 6.901465 -46.064789 
-89.418358 11.521604 95.471886 75.546875 34.335941 167.949219 26.910782 -2.824132 -1.258322 -40.253902 6.884765 -1.180470 51.553619 8.070152 2.616707 -57.011719 -6.953125 1.318359 2.000000 -2.000000 0.000000 -66.826172 35.664059 37.197262 -43.575352 -1.914520 -2.016840 -15.167007 48.215931 6.939436 -2.000000 2.000000 0.000000 82.050781 -12.216798 17.683481 2.540786 2.047503 0.212543 -40.241760 -65.129135 52.705425 -5.779924 9.652096 20.461061 1.889083 -5.755687 -0.462923 29.537762 -13.948561 5.473261 -7.120162 -17.105238 -33.556904 4.769618 5.663128 0.587903 39.354958 7.452673 -44.286842 
-89.550606 11.530399 95.419800 75.546875 34.335941 167.949219 26.883102 -2.904126 -1.100595 -39.902348 6.884765 -1.318359 51.553619 8.070152 2.616707 -57.753906 -7.246093 1.103515 2.000000 -2.000000 0.000000 -67.626953 35.175785 36.656017 -43.926895 -1.924270 -2.016271 -15.426618 48.572212 7.194171 -2.000000 2.000000 0.000000 81.445313 -12.275390 17.410034 2.755724 2.116320 0.206835 -40.738873 -64.826080 52.919003 -5.448732 9.157310 20.143356 0.824886 -5.775884 -0.339644 30.159014 -13.470448 5.661309 -7.676613 -17.670300 -32.390297 5.826136 5.666079 0.680152 37.333298 8.054635 -42.698280 
-89.680214 11.548568 95.371902 75.546875 34.335941 167.949219 26.855383 -2.989836 -0.955439 -39.541016 6.718750 -1.591797 51.553619 8.070152 2.616707 -58.486328 -7.519531 0.869141 2.000000 -2.000000 0.000000 -68.486328 34.755859 35.806347 -43.923233 -2.033860 -1.882410 -15.544042 48.378933 7.188643 -2.000000 2.000000 0.000000 80.996094 -12.207031 17.558590 3.067809 2.193730 0.221196 -40.744102 -64.492683 52.716633 -5.125511 8.449664 20.345434 -0.228390 -5.772577 -0.217283 30.924282 -13.252461 5.489149 -8.057327 -17.944149 -31.255619 6.185318 5.644922 0.535582 36.049908 7.757566 -42.168949 
